PathFileType	4	(X/Y/Z)	0331.trc
DataRate	CameraRate	NumFrames	NumMarkers	Units	OrigDataRate	OrigDataStartFrame	OrigNumFrames
120	120	4	27	m	120	378	1006
Frame#	Time	RHip			RKnee			RAnkle			RBigToe			RSmallToe			RHeel			LHip			LKnee			LAnkle			LBigToe			LSmallToe			LHeel			Nose			REye			LEye			RShoulder			RElbow			RWrist			RThumb			RIndex			RPinky			LShoulder			LElbow			LWrist			LThumb			LIndex			LPinky		
		X	Y	Z	X	Y	Z	X	Y	Z	X	Y	Z	X	Y	Z	X	Y	Z	X	Y	Z	X	Y	Z	X	Y	Z	X	Y	Z	X	Y	Z	X	Y	Z	X	Y	Z	X	Y	Z	X	Y	Z	X	Y	Z	X	Y	Z	X	Y	Z	X	Y	Z	X	Y	Z	X	Y	Z	X	Y	Z	X	Y	Z	X	Y	Z	X	Y	Z	X	Y	Z	X	Y	Z
381	3.175	0.0341142750150084	0.1916310842050817	0.918432879872188	-0.0003893910044531	0.217346180584833	0.484807419900142	-0.03734441756807	0.2582709871779045	0.0860920700491155	-0.0531063850031809	0.0517915888985216	0.0149957767767757	-0.0879911497997231	0.0994049510256503	0.0199141995332114	-0.0361872979262429	0.297430914130839	0.0199925022364196	0.257994216740049	0.1920998258423194	0.9166316671352605	0.2745455769972831	0.2122705519653872	0.4839512761228952	0.3009917136130576	0.2764406964670015	0.0797185343603203	0.3258148289932479	0.0647864274871736	0.0122030218653868	0.3478454776334218	0.1145021610851192	0.0170373368565723	0.2959055550209688	0.31858555361192	0.0155767161172564	0.1480260796841637	0.1162621435886299	1.620719292459781	0.1084597149404726	0.1334739327949427	1.6484417810425158	0.1907716357155086	0.1486422956157433	1.6506903465875151	-0.0190730053859083	0.2264161029553068	1.4862933385022012	-0.0211165532929788	0.1838639945754231	1.7625888650959207	0.0117915253281411	0.1616431220023542	2.000023597005736	0.0799037324414412	0.1512076978486318	2.0549490440335254	0.0485370110183692	0.1474839966814384	2.093646542237442	-0.0098314131988979	0.1706704082572434	2.090715982451348	0.3033095736882013	0.2464067580416185	1.4817862456307072	0.3132555974715671	0.2146815872625225	1.7603682346861376	0.2684769676770663	0.167198498494581	1.998220990667716	0.2002782371732362	0.1379458371362454	2.045563578326548	0.2286192127732499	0.1335171813969581	2.0755461294885884	0.2776582225635347	0.1676280811851774	2.0758930716260617
382	3.183333333333333	0.0340642940558711	0.191694281643918	0.9181319343101496	-0.0003284769371689	0.2172879881140031	0.4848547618156394	-0.0373161258537387	0.2581580305232999	0.0859746105701597	-0.0532250290093501	0.0515993945659411	0.0150008739498943	-0.0881524872917702	0.0993177569267703	0.0198340798429435	-0.0361813902432182	0.2972776467317821	0.0198580373313456	0.257855030645035	0.192220127575557	0.9164957796324236	0.2744938687195555	0.2124247723037824	0.4840276198886421	0.300929227329891	0.276493145351161	0.0797045075400566	0.325828286662534	0.0655268751514361	0.0122971284566148	0.3478720647357824	0.1151481072899985	0.0171479699551531	0.2958629658992148	0.318652472474222	0.0155934607329759	0.1479770019798577	0.1166395956777091	1.6206568012058649	0.1087218507901012	0.1336730065993615	1.64852621313213	0.1910098526401269	0.1490444157862279	1.650737388175667	-0.0190102919443435	0.2266022435488444	1.4861246516589806	-0.0202508603789444	0.1838165735841372	1.7624478406029438	0.0133629271456839	0.1614207674111712	2.000092448468477	0.0814030254103528	0.1507406221165452	2.0548148186651343	0.050239269577335	0.1471438439597118	2.0935225825176818	-0.0073934114588786	0.1706499958151095	2.0909659980903963	0.3031031979276066	0.2464424866498721	1.4817184286847669	0.3124824861550732	0.2145399148027103	1.760117547842714	0.2662840450087863	0.1668017816791418	1.9978113954283752	0.1974648857761821	0.1373511723426812	2.0449005005779064	0.2257009790500907	0.1325911287695382	2.074640997968153	0.275299134086798	0.1668469956403126	2.075026900603352
383	3.191666666666667	0.0339976583997237	0.191749538590587	0.9177485270053426	-0.0002865837249864	0.2172281234325599	0.484888618767565	-0.0372916049429459	0.2580727673904102	0.0858309999696269	-0.0532527933799487	0.0514048357408886	0.0150052611247536	-0.0882542916415249	0.0992102626856104	0.019757365222618	-0.036215815339162	0.2971222038611168	0.0196883547697023	0.2576866550945916	0.1923770557325653	0.9162890881374524	0.2744318816232868	0.2125967462424392	0.4840407519712898	0.3008760292888976	0.2765988926377428	0.079678635373883	0.3257480148265138	0.0662470977899645	0.0124172239158053	0.3478051853029384	0.11576417018878	0.0172177343880244	0.2958756242335178	0.3187601350962944	0.0156460834899237	0.1479182589079063	0.1169942326059476	1.6205724474380905	0.1089836113102181	0.1338582867480805	1.648603272234303	0.1912274417073813	0.1494142308662399	1.6507417289520194	-0.0189790291981592	0.22683091123516	1.4859455691504129	-0.0193415934256595	0.1836957531234221	1.7623740329355548	0.0150181308711206	0.1611883022217561	2.000123602203346	0.082803528640414	0.1502354617682465	2.05463886088418	0.0519784282852736	0.1467637773848922	2.093358686333997	-0.004784636139992	0.1706206041026939	2.0911831299564967	0.302849120044362	0.2465414737790284	1.4816403116070416	0.3117288051292338	0.2143290561438929	1.7598563847264677	0.2641347223944746	0.1663590737092958	1.9973988866014287	0.1947079747504236	0.1367654518720414	2.0441735722854792	0.2226894377009041	0.1317478412548537	2.073711830210736	0.2729210393881404	0.1660561310452065	2.07418370570962
384	3.2	0.0339201119806245	0.1918090340764947	0.9173310376251936	-0.0002602150499879	0.2171690819974957	0.4849070682943793	-0.0372702166097391	0.2580142822995382	0.0856801245651978	-0.0532194150840076	0.0512178033395281	0.0149940848914367	-0.08829193959794	0.0990790013686175	0.0196809278780674	-0.036273912787051	0.2969813259323666	0.0195040254426844	0.2575029901311357	0.1925755447614381	0.9160486446556936	0.27436077908494	0.2127743589718869	0.4840070888493395	0.3008401174439208	0.2767481350094078	0.0796444576919531	0.325601562154665	0.0668908896432088	0.0125528463460811	0.3476664638946484	0.1162899370340278	0.0172430382041366	0.2959422558893858	0.3189083611762697	0.0157218450638251	0.1478714199492082	0.1173333308719875	1.6204653536092748	0.1092522567424072	0.1340514249509632	1.6486696182026603	0.1914307597799723	0.1497437716741846	1.6506920334830266	-0.0189710704481098	0.2270920953092808	1.485765503216412	-0.0183830926250559	0.1835105997270743	1.762346494730562	0.0167461546583987	0.1609318360302146	2.0001122107317486	0.0841239921789941	0.1496795480013195	2.0544169220644948	0.0537583495528265	0.1463532506463697	2.09315227391138	-0.0020185676987939	0.1705955327767513	2.0913829170630303	0.3025609778182234	0.246684744261867	1.4815542652188158	0.3109900571830539	0.2140582947595763	1.7596039166229889	0.2620394865268572	0.1658851179908728	1.996989297757573	0.1920303968182327	0.136229379692986	2.0433946963920406	0.2196243268838358	0.1310236161237317	2.072786139209064	0.2705265080663336	0.1652805927516986	2.073401124656238
